<?xml version="1.0" standalone="no"?>
<!DOCTYPE svg PUBLIC "-//W3C//DTD SVG 20010904//EN"
 "http://www.w3.org/TR/2001/REC-SVG-20010904/DTD/svg10.dtd">
<svg version="1.0" xmlns="http://www.w3.org/2000/svg"
 width="225.000000pt" height="225.000000pt" viewBox="0 0 225.000000 225.000000"
 preserveAspectRatio="xMidYMid meet">

<g transform="translate(0.000000,225.000000) scale(0.100000,-0.100000)"
fill="#000000" stroke="none">
<path d="M292 1662 c77 -62 189 -178 241 -249 l30 -43 91 0 91 0 37 -58 c56
-87 126 -241 149 -328 11 -44 23 -124 25 -179 5 -97 -2 -143 -40 -260 -7 -20
-3 -20 205 -18 l211 1 35 59 c20 32 59 99 88 148 343 592 372 645 358 645 -5
0 -16 -14 -25 -31 -10 -17 -23 -27 -28 -24 -18 11 -330 21 -330 11 0 -6 -5 -5
-11 1 -14 14 -39 -15 -90 -99 -18 -32 -36 -58 -40 -58 -3 0 -20 26 -37 58 -73
136 -206 294 -351 419 l-74 63 -304 0 -304 0 73 -58z"/>
<path d="M1235 1370 c-3 -5 -1 -10 4 -10 6 0 11 5 11 10 0 6 -2 10 -4 10 -3 0
-8 -4 -11 -10z"/>
</g>
</svg>
